<?xml version="1.0" encoding="UTF-8" standalone="no"?>
<!-- Created with Inkscape (http://www.inkscape.org/) -->

<svg
   width="2560"
   height="1600"
   viewBox="0 0 677.33332 423.33333"
   version="1.1"
   id="svg5"
   inkscape:version="1.2.2 (b0a8486541, 2022-12-01)"
   sodipodi:docname="live-the-dream.svg"
   xml:space="preserve"
   inkscape:export-filename="live-the-dream.png"
   inkscape:export-xdpi="96"
   inkscape:export-ydpi="96"
   xmlns:inkscape="http://www.inkscape.org/namespaces/inkscape"
   xmlns:sodipodi="http://sodipodi.sourceforge.net/DTD/sodipodi-0.dtd"
   xmlns="http://www.w3.org/2000/svg"
   xmlns:svg="http://www.w3.org/2000/svg"><sodipodi:namedview
     id="namedview7"
     pagecolor="#505050"
     bordercolor="#ffffff"
     borderopacity="1"
     inkscape:showpageshadow="0"
     inkscape:pageopacity="0"
     inkscape:pagecheckerboard="1"
     inkscape:deskcolor="#505050"
     inkscape:document-units="mm"
     showgrid="false"
     inkscape:zoom="0.59502463"
     inkscape:cx="1183.9846"
     inkscape:cy="697.45012"
     inkscape:window-width="2560"
     inkscape:window-height="1554"
     inkscape:window-x="0"
     inkscape:window-y="46"
     inkscape:window-maximized="1"
     inkscape:current-layer="layer5" /><defs
     id="defs2"><rect
       x="492.94035"
       y="1203.682"
       width="1620.8035"
       height="206.38233"
       id="rect2179" /></defs><g
     inkscape:groupmode="layer"
     id="layer5"
     inkscape:label="Text and Background"
     style="display:inline"><rect
       style="fill:#000000;stroke-width:0.264999"
       id="rect1313"
       width="677.33331"
       height="423.33331"
       x="0"
       y="0"
       inkscape:label="Background" /><text
       xml:space="preserve"
       style="font-size:52.9167px;line-height:0;font-family:Iosevka;-inkscape-font-specification:'Iosevka, Normal';display:inline;fill:#4a3a8a;fill-opacity:1;stroke-width:0.264999;letter-spacing:0px"
       x="136.59879"
       y="355.19104"
       id="text2239"
       inkscape:label="Text"><tspan
         sodipodi:role="line"
         id="tspan2237"
         style="font-style:italic;font-variant:normal;font-weight:900;font-stretch:normal;font-family:Roboto;-inkscape-font-specification:'Roboto Heavy Italic';fill:#4a3a8a;fill-opacity:1;stroke-width:0.265"
         x="136.59879"
         y="355.19104">LIVE THE DREAM</tspan></text></g><g
     id="layer4"
     inkscape:label="Mascots"
     transform="translate(5.7994854)"><path
       id="path2311"
       style="display:inline;fill:#4a3a8a;fill-opacity:1;stroke-width:0.264999"
       inkscape:label="BSD Daemon"
       d="m 465.34524,89.341833 c -0.0828,-0.0014 -0.14518,0.01005 -0.18087,0.03721 -0.28547,0.217301 -0.36863,1.767718 -0.14366,4.779036 0.22104,2.958557 1.94985,8.742441 2.29288,11.857671 0.34304,3.11524 -0.0601,3.69073 -0.39015,3.69073 -0.33006,0 -2.06686,0.15832 -8.42791,0.0837 -6.36106,-0.0746 -14.5516,1.02476 -20.94033,4.50618 0,0 -2.7136,1.53651 -3.91759,2.4412 -1.20398,0.90469 -6.51235,5.72728 -11.97911,10.46189 -5.46673,4.73462 -5.05171,-1.454 -4.88394,-2.98173 0.16778,-1.52773 2.97628,-10.60858 3.50728,-14.35726 0.53102,-3.74869 0.83854,-8.04745 -5.0953,-1.31878 -3.01572,3.41966 -6.52688,9.52593 -7.55922,10.89339 -1.03235,1.36746 -5.60722,10.02566 -5.55832,18.91771 0.0489,8.89204 9.17646,7.23634 14.82442,7.17734 5.64794,-0.059 5.07974,0.92974 5.09374,1.45779 0.0139,0.52806 0.10707,4.62039 0.78083,12.94804 0.67379,8.32765 5.97679,12.92176 8.20415,15.05025 2.22734,2.12848 0.94165,2.58566 0.19741,2.71094 -0.74425,0.12529 -1.9393,-0.24104 -6.7138,1.5441 -4.77451,1.78514 -10.17678,9.34406 -14.09682,14.85284 -3.92003,5.50877 -7.58356,14.61442 -11.72383,24.02695 -1.76379,4.00981 -1.9078,5.89714 -1.07642,7.15719 0.83139,1.26005 1.75227,1.07217 6.22959,1.42007 3.64759,0.28343 4.47779,-1.98452 5.59294,-5.06016 0.50287,-1.38692 2.94192,-6.94322 4.9258,-10.97297 1.98384,-4.02977 5.79881,-8.65437 7.91011,-10.8598 2.11134,-2.20544 2.24647,1.41196 2.0252,2.52387 -0.22129,1.1119 -0.8908,9.37173 -1.52755,12.55066 -0.63675,3.17893 -1.47856,11.11958 -2.83187,15.5422 -1.35332,4.42263 -2.02412,6.61369 -8.91212,5.60121 -6.888,-1.01249 -8.45098,-0.84612 -12.01219,-2.52078 -3.5612,-1.67466 -5.14321,-4.90759 -5.6782,-7.68583 -0.53501,-2.77824 1.17048,-15.11939 1.69808,-17.25786 0.52761,-2.13847 2.81407,-13.8269 4.06591,-14.45028 0.27247,-0.13573 0.5784,-0.13266 1.78387,-0.0145 1.74523,0.1711 3.23553,0.45287 4.26072,0.59117 0.83667,0.11286 1.66455,0.10581 1.54874,-0.62321 -0.41156,-2.59076 -1.86105,-10.03012 -2.10581,-11.81634 -0.30247,-2.20741 -0.91901,-1.89216 -1.20148,-1.7017 -0.28249,0.19046 -4.74348,2.99781 -7.65121,4.96972 -2.31919,1.57278 -6.41647,4.25053 -7.58869,5.31906 -0.29749,0.27117 0.13471,0.45254 0.19741,0.46973 0.29157,0.0797 3.94208,1.09981 4.9506,1.47433 1.00854,0.37453 0.62547,1.22573 0.42323,1.71928 -0.20222,0.49354 -2.2442,7.54384 -3.37964,11.51764 -2.68443,9.39499 -2.74076,18.11646 -2.54558,21.37751 0.19521,3.26103 0.36045,5.40647 3.71243,9.77098 2.69188,3.505 6.24281,4.67844 10.95799,5.9185 4.3708,1.14949 9.00963,1.95327 11.26546,2.70216 2.25581,0.7489 5.11764,1.94039 6.36086,9.13071 1.24323,7.19032 -1.27115,16.41144 -2.54662,19.53627 -1.27549,3.12483 -2.73732,9.27665 -1.29088,10.79108 1.44648,1.51442 3.57832,2.11123 12.67262,0.37724 9.09433,-1.734 17.57633,0.16264 25.45839,2.17609 7.88208,2.01343 8.20163,-1.75964 8.34471,-5.39554 0.14309,-3.63587 -3.99623,-5.54324 -4.77025,-5.91178 -0.77401,-0.36856 -9.9261,-3.6064 -12.03079,-4.26331 -2.10468,-0.65688 -4.16712,-1.49255 -2.24431,-4.70875 0.53712,-0.89841 6.33194,1.31232 11.77499,3.92379 5.44306,2.61143 8.30067,8.61451 11.37502,13.08395 3.07438,4.46947 11.41274,-1.28415 11.41274,-1.28415 0,0 24.36913,-11.16877 30.07568,-15.44247 5.70656,-4.2737 -2.52011,-7.22673 -6.58151,-7.76284 -1.8786,-0.24798 -4.25969,0.35856 -17.93275,6.35 -13.67308,5.99146 -13.3245,-5.02942 -13.05295,-6.76289 0.27154,-1.73347 3.41344,-5.69374 5.1418,-12.11864 1.72837,-6.4249 -0.29821,-24.83312 -0.53123,-27.2619 -0.23302,-2.42878 -2.4198,-14.2612 -2.88716,-17.22893 -0.46736,-2.96772 0.21827,-4.33152 0.91777,-3.84162 0.69953,0.4899 4.45709,3.67907 6.63835,6.50141 2.18131,2.82234 6.38392,6.72703 6.42442,16.04502 0.008,1.95492 0.20458,5.16932 -0.002,6.27145 -0.23784,1.26849 -2.88135,3.1425 -4.90254,4.16615 -2.6742,1.35438 -2.42359,2.2153 -2.1022,2.58899 0.32139,0.37369 1.96631,2.51826 3.47162,3.93361 1.50532,1.41535 10.23598,9.26297 13.48807,13.51442 3.25208,4.25146 4.58466,2.30672 5.11338,1.52136 0.52871,-0.78536 2.84017,-4.26336 5.74384,-7.90288 2.90364,-3.63952 9.80913,-8.93928 13.5015,-11.71557 3.69234,-2.77627 3.60412,-2.6257 3.65042,-4.31239 0.0463,-1.68671 -0.96616,-2.45418 -1.87482,-4.1305 -0.90863,-1.67631 -5.89878,-8.16451 -6.48746,-8.89868 -0.58869,-0.73416 -6.4624,-8.2008 -6.78821,-8.49457 -0.32581,-0.29378 -1.06759,0.19287 -1.62213,0.92449 -0.55452,0.73161 -0.37133,2.48522 -0.45113,3.35121 -0.0798,0.86599 -2.03482,2.85804 -2.72232,3.43029 -0.68746,0.57225 -1.86548,-1.1109 -2.72696,-1.33584 -0.86148,-0.22494 -3.00267,-0.005 -4.04988,-0.66973 -1.04725,-0.66469 -1.83598,-3.09311 -3.17914,-5.70146 -1.34315,-2.60834 -6.30649,-9.84844 -8.9147,-13.03021 -2.60821,-3.18178 -5.06669,-7.01797 -7.5706,-12.05353 -2.50387,-5.03555 -7.46742,-6.52452 -8.1225,-6.8771 -0.65511,-0.35259 -0.21044,-3.80702 0.0729,-4.10414 0.28335,-0.29716 4.78052,-0.19218 7.9034,-0.31471 3.12288,-0.12254 6.50738,-0.38006 9.14466,-5.77019 2.63729,-5.39014 0.43467,-9.15179 -1.45676,-14.64717 -1.89142,-5.49537 -2.20698,-8.98278 -2.13268,-16.63516 0.0743,-7.65237 -0.97243,-9.3065 -1.85674,-10.74456 -0.88429,-1.43805 -0.75081,-1.64814 -0.57516,-1.96009 0.17563,-0.31194 2.89321,-1.55831 4.25711,-2.90732 1.3639,-1.34899 2.25718,-1.87412 2.13113,-5.45961 -0.12602,-3.58548 -1.75232,-6.87733 -6.56911,-12.84624 -4.81678,-5.968916 -11.80277,-9.913774 -12.57546,-10.441226 -0.6761,-0.461517 -2.27186,-1.112847 -2.8515,-1.122929 z m 31.80684,130.756357 c 0.45751,-0.003 0.87169,0.071 1.16117,0.23151 0.54488,0.30228 1.07774,0.72674 0.76326,0.9741 -0.31451,0.24737 -1.93321,1.37524 -2.19573,1.56373 -0.26249,0.18851 -0.88832,0.64493 -0.88832,0.64493 -1.6558,1.00022 -3.9152,2.5689 -4.58576,3.00653 -0.67056,0.43763 -1.24106,0.55327 -1.22577,-0.78858 0.1599,-1.13409 0.20594,-1.69392 1.37615,-2.77399 0.54799,-0.50578 1.257,-1.13797 1.94768,-1.5534 0.87318,-0.5252 1.83351,-0.97256 2.39159,-1.12654 0.41471,-0.11442 0.85205,-0.17588 1.25573,-0.17829 z" /><path
       id="path2020"
       style="display:inline;fill:#4a3a8a;fill-opacity:1;stroke-width:0.264999"
       inkscape:label="Tux"
       d="m 229.96322,104.01174 c -10.47667,0.09 -18.08486,14.74916 -21.52065,21.73769 0,0 -5.89,12.38119 -9.16791,18.80195 -2.99969,5.87576 -6.55136,9.23637 -9.756,12.5088 -4.64386,4.74214 -9.00956,9.44414 -10.42675,10.73165 -2.39517,2.17597 -8.4931,10.05705 -9.36532,13.83688 -0.61715,2.67445 -0.76944,10.84573 -1.92701,14.47043 -1.8234,5.70965 -2.27941,5.98146 -4.44986,9.81646 -0.78139,1.38065 -4.22686,5.00028 -5.28805,5.48235 -2.77523,1.2607 -5.22708,1.45944 -7.43521,1.5875 -1.45567,0.0844 -1.81618,0.65275 -2.01383,1.71566 -0.2168,1.16591 -0.18228,2.84153 0.13695,3.08766 0.52539,0.40508 2.62927,-0.018 2.97087,0.68317 0.28004,0.57475 -0.0299,2.70064 -4.10724,9.98802 -1.04511,1.86789 -5.48058,14.18436 -5.78621,15.35772 -0.88676,3.40435 -0.37435,4.05896 0.59686,4.20077 0.75076,0.10962 5.03491,-0.61662 9.87072,-1.79885 3.5763,-0.87431 8.08297,-2.09057 13.27102,-2.93264 12.20325,-1.9807 18.27134,-3.49148 19.05104,-4.25762 0.7797,-0.76615 2.14172,-7.51733 2.36161,-8.72505 0.21988,-1.20772 2.64801,-11.1949 4.89789,-18.11362 0.61396,-1.888 0.81908,-3.22905 0.31885,-3.90519 -0.6969,-0.94195 -2.39757,-0.80035 -3.02514,-0.88005 -0.96375,-0.12245 -4.08822,0.14063 -5.05292,-0.48059 -0.42591,-0.27428 -0.94178,-1.20603 -1.2237,-2.76779 -0.21045,-1.16587 -1.17312,-1.44582 -1.7415,-1.75752 -1.11315,-0.61045 -2.01825,-1.18707 -2.14043,-1.72444 -0.21423,-0.94218 0.58218,-2.01338 1.80609,-3.59771 2.57077,-3.32786 6.52154,-8.82819 8.63048,-11.77758 1.56675,-2.19113 4.00826,-4.91515 5.78001,-6.82129 1.68189,-1.80947 2.65747,-2.3008 2.96209,-2.08979 0.30463,0.211 0.42017,0.75056 0.37207,1.95905 -0.11384,2.85853 -0.17674,7.07868 -0.13694,8.65684 0.0227,0.89896 -0.43382,6.97232 -0.98237,10.8014 -0.82158,5.73495 -1.5883,12.99931 -2.8205,16.52974 -0.91828,2.63101 -1.7232,8.40911 -2.06551,10.40609 -0.42375,2.47186 -0.37934,5.01594 -0.41134,8.73021 -0.0168,1.95058 0.42428,6.13765 0.73484,9.56945 0.62494,6.90602 2.05513,15.1176 2.50372,18.39526 0.67151,4.90639 -1.88562,8.30852 -4.52117,11.4148 -1.39624,1.64563 -3.8135,4.75721 -5.5423,6.93653 -1.53445,1.93434 -2.24432,3.64845 -1.89549,4.0597 0.7609,0.89711 3.23765,0.86496 6.99751,0.83716 5.58227,-0.0412 13.6686,-0.46226 20.59874,0.55914 4.63895,0.68369 7.31445,1.13558 8.65425,0.65009 2.00982,-0.72828 1.23936,-3.34571 0.52658,-5.2126 -1.0766,-2.81983 -5.1394,-4.81473 -10.27327,-5.18263 -5.1339,-0.36788 -4.27742,-1.88628 -3.6773,-2.36317 0.60011,-0.47688 5.49588,-5.1866 8.93796,-8.76484 1.2831,-1.33385 1.94321,-1.6064 2.44946,-1.5136 0.85184,0.15611 1.17282,1.09027 2.18953,2.56212 1.04959,1.51944 3.53997,4.57203 8.07134,8.22895 2.46671,1.9907 5.52969,3.68101 9.31416,6.50348 4.86348,3.62719 7.5847,6.11158 10.357,6.28024 3.34783,0.20368 6.2699,-2.37642 6.60114,-2.65824 0.89881,-0.76472 12.55228,-11.63928 17.7183,-15.798 5.16604,-4.15868 -0.52022,-7.36715 -2.27273,-7.40265 -1.33873,-0.0271 -3.66921,-1.22875 -17.1111,5.6131 -13.44191,6.84184 -12.4582,-4.88338 -11.69696,-6.68848 0.47099,-1.11686 2.59377,-5.88714 5.88905,-11.55847 2.0307,-3.49499 3.52361,-8.50106 5.66373,-12.74393 5.61295,-11.12778 6.34909,-36.04736 6.0017,-41.59074 -0.34736,-5.54338 -0.69857,-6.9158 0.68627,-6.27145 1.38483,0.64435 10.04653,6.8508 19.28719,12.92272 9.24066,6.07195 7.8315,0.99448 7.26261,-0.72915 -0.58001,-1.75731 -2.58674,-6.25481 -4.87102,-10.58592 -2.30125,-4.36329 -8.65189,-16.29744 -11.61893,-21.59093 -2.96706,-5.29346 -5.91306,-7.69355 -11.56312,-10.90579 -5.65006,-3.21226 -8.26849,-11.06347 -8.58914,-13.34389 -0.21562,-1.53344 -0.75913,-6.24434 -0.84853,-9.43973 -0.0436,-1.55654 0.0204,-2.75355 0.28267,-3.0484 0.51374,-0.57756 1.79489,-0.60397 6.62957,-1.23765 2.70037,-0.35394 6.0874,-0.89302 10.17458,-1.81384 6.23011,-1.40361 8.68214,-1.84999 8.71574,-3.46904 0.0308,-1.48615 -8.56533,-5.25265 -19.21226,-5.77949 -7.73163,-0.38258 -9.14636,-5.60058 -12.30209,-9.69347 -3.15575,-4.09284 -4.82494,-4.67235 -12.43439,-4.60695 z m -54.15354,102.62049 c 2.30587,0.003 2.95091,0.22205 3.8486,1.38246 0.89769,1.16041 0.77178,1.68835 0.12874,1.74675 -0.64303,0.0584 -2.95519,0.2648 -3.84923,0.31615 -0.80887,0.0676 -2.6635,0.26964 -2.91239,-0.11608 -0.24888,-0.38571 -0.0927,-1.42757 0.50357,-2.05667 0.5963,-0.62911 1.46338,-1.16675 2.28071,-1.27261 z m -7.70211,1.00781 c 0.24101,-0.005 0.49204,0.14148 0.59054,0.77143 0.3002,1.91982 0.17692,2.24492 -1.33467,2.52565 -1.31792,0.26491 -1.55036,0.0227 -1.57011,-0.523 -0.0198,-0.5457 0.22798,-1.19474 0.79885,-1.73273 0.52321,-0.58972 1.02189,-1.03159 1.51539,-1.04135 z"
       sodipodi:nodetypes="scssssssssssssssssssssssssssssscsssssssssscsssssssssssssssssssssssssssssssssscsscssccscscc" /><path
       id="path2308"
       style="display:inline;fill:#4a3a8a;fill-opacity:1;stroke-width:0.264999"
       inkscape:label="GNU"
       d="m 376.11399,60.460392 c -0.72746,-0.02546 -1.36971,0.009 -1.93631,0.101803 -1.69764,0.278197 -4.02661,1.004753 -4.07831,1.244368 -0.12072,0.559509 1.99673,2.53082 4.06487,3.888652 2.06814,1.357832 7.78405,3.89592 13.46946,11.64115 5.68545,7.745233 2.54667,18.046351 -6.04614,26.664525 -8.59281,8.61817 -33.25142,5.63585 -46.02458,5.33559 -12.77315,-0.30025 -22.26039,-0.47099 -26.15344,-0.44339 -4.74828,0.0337 -16.84031,0.15239 -25.99118,-7.52873 -5.98001,-5.019547 -7.77259,-13.992864 -5.63738,-19.864942 1.19739,-3.29295 6.77754,-6.451292 9.46867,-7.949902 0.74989,-0.417587 1.72718,-0.611914 2.04432,-1.413351 0.19492,-0.49258 -1.40611,-1.962601 -5.2157,-3.674194 -3.80963,-1.711593 -10.36155,-0.85805 -11.73934,-0.43925 -1.37782,0.418798 -15.69877,6.792761 -15.83727,20.779611 -0.1385,13.986848 6.10718,19.783748 12.40596,25.184508 3.80254,3.26042 14.20166,6.6711 22.7738,7.97471 6.03041,0.91708 11.21027,0.8205 12.40028,0.8046 2.88216,-0.0384 2.25424,0.76285 1.93993,1.38079 -0.3143,0.61794 -4.6503,10.01492 -9.90585,20.63337 -3.99596,8.07353 0.3466,17.35092 2.4076,19.82153 2.061,2.47061 3.9595,1.35403 4.10724,1.15135 1.72523,-2.36672 8.5581,-11.75295 9.28316,-12.60647 0.72509,-0.85351 1.91672,-1.54174 2.80448,1.55185 0.88776,3.09358 2.92636,8.40813 6.828,12.8664 0.78799,0.9004 1.45305,2.46598 1.54255,3.37188 0.1145,1.1583 -5.43871,7.08535 -11.62513,12.74496 -6.18644,5.65961 -19.02355,16.67341 -20.85765,18.3286 -1.84213,1.66245 -3.15219,2.64912 -3.16879,3.59513 -0.0125,0.71204 0.32368,0.68452 1.2516,1.39785 0.92795,0.71332 0.62966,1.51924 0.30179,2.09134 -0.32787,0.5721 -0.273,1.02554 -3.12849,1.01854 -2.85551,-0.007 -4.75927,3.75491 -5.37228,4.60799 -0.61299,0.85308 -3.64652,4.80214 -4.36718,5.10305 -0.68289,0.28514 -1.60315,-0.2291 -2.20658,-0.65268 -0.60341,-0.42356 -2.60346,-1.5074 -2.60346,-1.5074 0,0 -1.16712,-0.32363 -2.09755,2.20555 -0.97103,2.63956 -2.15931,5.60489 -5.99912,11.07633 -3.24559,4.62476 -6.43519,9.03026 -6.43319,9.94823 10e-4,0.81477 -0.46889,1.64724 2.79259,3.34243 3.26148,1.69519 8.9071,3.12851 17.2067,4.25711 8.27953,1.12588 19.27596,2.0755 21.32997,2.27841 2.05398,0.20291 3.57516,-0.5976 4.24573,-2.92902 0.633,-2.2008 1.32224,-6.96786 1.85209,-10.43709 0.29842,-2.18956 1.06636,-7.29793 1.2361,-8.43101 0.20212,-1.34889 0.50639,-5.71848 0.21755,-8.02173 -0.28885,-2.30324 -2.18016,-2.02687 -2.60035,-2.05207 -0.5364,-0.0322 -1.14551,0.21025 -1.75287,-0.38293 -0.41182,-0.4022 -0.0599,-2.79487 -0.0326,-3.12539 0.0335,-0.4066 0.1914,-2.27878 0.77825,-2.69647 0.70468,-0.51791 3.56166,-0.0733 4.73718,-0.17105 1.17552,-0.0978 1.71278,-0.85894 0.51986,-2.11615 -1.19292,-1.25721 -1.16507,-1.36301 -1.07797,-1.78077 0.0871,-0.41777 3.47203,-2.9409 4.4571,-3.93361 0.98508,-0.99271 9.43511,-9.38491 11.20861,-11.29854 1.28634,-1.38796 4.31757,-4.98396 5.88595,-6.85487 0.59397,-0.70855 0.70991,-0.92761 0.8971,-0.82373 0.18717,0.10389 0.10407,0.94444 0.10491,3.02566 0.002,4.30681 -0.092,11.9984 -0.68523,18.63917 -0.8799,9.84984 -5.94382,32.99706 -8.45737,37.25406 -1.38989,2.35391 -5.46788,8.45788 -5.46788,8.45788 0,0 -6.87635,9.12457 -7.44709,10.98744 -0.13493,0.44041 -0.21749,0.94338 -0.26769,1.41335 -0.0957,0.89515 -0.16309,1.3223 0.0574,1.52446 0.22046,0.2022 0.91384,0.14562 2.57607,0.14262 4.98805,-0.009 15.53197,-0.0309 20.06079,-0.0661 1.31287,-0.0102 1.82453,0.007 2.0221,-0.16847 0.32968,-0.29276 0.18475,-1.0446 0.13745,-2.30632 -0.0503,-1.34046 -0.16793,-2.81242 -0.3731,-3.22306 -0.39827,-0.79714 -3.06417,-2.8029 -3.36103,-3.1259 -0.29687,-0.32301 -0.212,-0.9959 0.3917,-1.79576 0.6037,-0.79986 11.244,-14.22131 11.91659,-15.14894 0.39828,-0.5493 2.81645,-4.18904 4.72271,-7.06676 1.31296,-1.98205 1.84677,-2.95081 2.60914,-2.96881 0.76236,-0.018 0.99492,0.77094 1.90014,2.59261 0.93928,1.89021 1.55389,9.48245 1.90428,13.27722 0.35495,3.84416 0.91595,7.40543 1.12603,8.40776 0.36777,1.75466 1.01479,5.87561 1.34824,7.83156 0.335,1.96501 0.81065,2.32998 1.44849,2.42518 0.38728,0.0578 5.81991,0.14559 6.33966,0.0455 7.51915,-0.0432 11.49175,0.069 18.75648,0.30903 1.56287,0.0617 2.62758,-0.959 3.03392,-1.99316 0.40632,-1.03416 0.41286,-4.50372 0.19947,-6.165 -0.21336,-1.66129 -3.41938,-4.14826 -8.55451,-5.53248 -5.13514,-1.38422 -7.08195,-2.76068 -9.8025,-8.15816 -1.61149,-3.19713 -2.39375,-14.76748 -2.42415,-17.36328 -0.0348,-2.96122 0.0154,-18.15967 0.0811,-18.86448 0.0657,-0.70482 -0.10033,-2.30568 0.90278,-2.38228 0.71109,-0.0543 0.71512,0.82261 2.44378,6.28333 1.72868,5.46074 3.9401,10.13167 6.52002,11.806 2.57989,1.67434 9.53824,-0.84478 10.67997,-2.11046 1.14175,-1.26567 0.25,-9.25264 -0.14108,-12.29279 -0.39111,-3.04016 -3.66798,-4.97973 -7.7277,-8.60981 -4.05973,-3.63009 -7.94227,-10.62942 -9.23457,-13.55525 -1.29228,-2.92584 -2.55315,-7.45828 -2.41536,-8.43411 0.1378,-0.97583 0.20932,-1.09573 1.26814,-2.67942 1.26898,-1.89804 4.85375,-10.09974 4.92735,-15.34687 0.0736,-5.24711 -1.87801,-10.42405 -2.10013,-11.27683 -0.13202,-0.50684 -0.7504,-2.60188 -1.23042,-4.21835 -0.3277,-1.10329 -0.58249,-1.49176 -0.37155,-1.65726 0.21094,-0.16551 0.25114,-0.0174 1.40146,0.98495 1.09647,0.95538 2.81081,2.54054 5.32371,5.08806 5.1492,5.22018 5.86139,0.0213 5.65237,-1.57044 -0.20902,-1.59176 -1.60446,-6.28236 -2.33733,-7.64088 -0.5037,-0.93371 -3.39855,-6.12609 -5.12682,-9.37566 -0.78632,-1.47845 -1.21587,-2.0497 -0.98908,-2.47271 0.20512,-0.38259 0.35072,-0.35237 2.33525,-0.43667 0.77502,-0.0329 7.47498,-0.5333 10.39265,-1.05006 4.40541,-0.78026 11.20603,-2.40229 18.95802,-10.24951 7.75199,-7.84723 5.91981,-24.190223 3.24993,-34.729144 -2.66989,-10.53892 -10.45216,-17.071382 -19.73471,-19.840132 -3.98042,-1.187256 -6.93025,-1.801552 -9.11263,-1.877922 z M 287.48064,218.61456 c 0.18774,-2.8e-4 0.35294,0.004 0.47904,0.0145 0.6726,0.0561 1.95762,-0.0696 2.82981,1.27538 0.24237,0.47468 0.16831,1.44173 -0.58446,1.50533 -1.09605,0.0926 -4.17598,0.0517 -4.17598,0.0522 0,0 -1.154,0.0227 -1.85311,-0.031 -0.69908,-0.0537 -0.57329,-0.70137 -0.52349,-1.39423 0.0498,-0.69285 0.96449,-1.13533 1.41077,-1.2423 0.36257,-0.0869 1.60388,-0.1786 2.41742,-0.17984 z" /></g></svg>
